<?xml version="1.0" encoding="utf-8"?>
<!-- Generator: Adobe Illustrator 24.0.1, SVG Export Plug-In . SVG Version: 6.00 Build 0)  -->
<svg version="1.1" id="Layer_1" xmlns="http://www.w3.org/2000/svg" xmlns:xlink="http://www.w3.org/1999/xlink" x="0px" y="0px"
	 viewBox="0 0 826 684" style="enable-background:new 0 0 826 684;" xml:space="preserve">
<g>
	<path fill="#00ff00" data-title="Buiucani"
		d="M322.5,236L297,213l0.5-4l-5.5-4.5l1-3l-0.5-2.5l-5-3H283l26-25.5c0,0-12.5-9.3-14-9.3s-9-7.6-9-7.6l-7-6.6
		l-10.5-7.5l-8-7L242,129l-16-2h-17l-15-3h-13l-11.5-3.5l-6-3.3l-3.5-3.1l4.5-3.6l3.8-4.9l-2,1.5l-7-6.8l-0.7-2.5l-2.5-4.8l-0.8-5.2
		l0.2-3.3l-1.2-7.7l-0.8-5l-2.2-4.7l-2.2-4.3l-4.3-3.8l-2.5-5l-5.3-4.5l-2.8-2.5l-4.2-1.8l-4.5-0.4l-3.8,2.7L102,44H91l-3.3,6.5
		l-2.6-0.9c-0.2,1.4-0.5,2.9-0.9,4.3l3.4,1.3l2.6,3.5l2.1,1.5l2.7,2l4,2l4.2,1.8l2.3,1.8l-0.2,3.5l-0.5,4.8l-0.8,5.1l-1.9,5.6
		c0.6,1.2,1.1,2.5,1.4,3.9l0.3-0.4l1.5-1.2l0.8-0.2h1.8l1.2,2l3.3,2l3.2,2.6l3,3.5l4,2.9l1.8,4.6l0.5,2.1v2.2l-0.8,3H121l-2.3,0.5
		l-2.5,1.3l-1.8,0.8L114,120l0.8,1.8l-2,5.3l-1.2,3.3l0.7,4.2l1.5,4.7l2.8,4.7l1.2,3.8l-0.2,4.2l-1.3,3.8l-5,5.2l-2.5,2l-2.7,1.7
		l-4.2,3.2l-4,1.3l-4.9,1.5l-2.1,2.7v1.8l4,1.8l2.5,2l1.4,3.1l0.8,3.1H98l-1.5,2H95l-1.5,0.8l0.8,3l2.5,3.2h5.2l2.3,0.5l3.5,1.5
		l3.8,3.4l2.2,3l2.7,3.8l2.2,2.6l2,2l1.7-1.2l1.3-3.3l2.3-3.3l3-1.8l1.8,0.8l2,0.8l2.3,1.7l3,2.2l2.5,2.2l1.5,4.1l3.5,2.1h3.3
		l2.8,0.8l-1,2.2l-0.5,2.3l0.8,3.5l4.3,2.1l4.8,1.3l4.2,1.7l4.3,1.8l-1.8,6l-0.1,2v3.3l1,2.3v4.7l-1,1.8l2.5,1.7l2.9,1.8l-2.4,1.5
		l-2,1.7v1.5l3.7,2.2l2.7,2.2l2.6-2l1.8,1l2.1,2.3l1.9,2.5l1.7,2.2l1.7,1.5l-1.3,1.2l-1.2,0.8l-1.2,1l1.2,1.5l0.2,4l1.3,2.5l2,3
		l1.1,1.5l-0.1,2.5v2.2l1,4.3v5.7l0.2,1.3l-0.3,2.2l-1.6,7.5l-1,3l-0.9,5.7l-1.3,3.2l-2.5,4.3l-1.4,2.7l0.5,0.1l0.9-1.8l2.5-4.3
		l1.3-3.2l2.7-4l4-0.3l6.2,1.7l-1.2-7v-7l2.3-6.7l0.1-9l1.1-6l3.4-4.3l5,2.7l4,5.3l5.7,2.8l5.3-4.8h8l4-2v-4.7l1.2-7.7l5.9-2.3
		l5.1-4.3l10.2-4.7l6,5l12.7,8l11.7,4l17.3-19.7l10.7-9.3l6.7-6l0.8,0.7L322.5,236z"/>
	<path fill="#0000ff" data-title="Râșcani"
		d="M412,155l5-7.5l2.3-5l2.8-4V132l2-4.5V117l1-6.5l1-5.5v-7l4.5-2.5l8.3-2l7.9-0.5l5.2-2.9l-6.2,0.6l-7.3-1.7
		l-7.5-2l-2.8-3l1.2-4.5l1.3-5.5l0.5-3.7l1.2-4.7l0.5-2.7l-1.3-0.2l-8.5,1.2H417l-7-3.3l-6.8-0.7l-6-2H387l-3.8,11.7l-1.2,3.8
		l-2.5,0.8l-2-0.8l-0.3,3.6l-0.7,3l-2.3,3l-1.7,4.3l-3.8,1.2l-2.2-2.2l-2-3l-1.3-3l-2.2-2.8l-2.2-1.5H353l-2-3.3l0.2-2.7l-0.5-3.8
		l0.5-2.3l-4.3-3.1l-0.5-1.4l-3.5-0.2l-2.5,2.2l-2.3,3l-5-0.2l-3.7,0.7l-2.2,0.3l-3.8,2.5c0,0-3,1.5-3.7,1.7s-4.5,2.5-4.5,2.5H313
		l-2.5-0.7l-2-0.7l-1-2.6L301.3,38l-41.5,8.1l-6.2-9.4l-5.3,4.7l-10.5,9.2l-2.2,2.5l-3.2,1.3l-4.3,5l-3.7-0.2L223,59l-0.2,2.2
		l0.7,1.8l-2.7,1.7l-15.7,13.2l-0.7-0.8c-0.5,1.2-1.2,2.4-2.2,3.2c-0.3,0.3-0.7,0.5-1,0.7l-12,12l-3.3,2l-2.3,1.2l-3,3.8
		c0,0-2.5,1.5-3,2.2s-3.2,2.2-3.2,2.2l-2.8-2l-1-0.5l-2.2,3.8l-3.8,4.8L160,114l2.1,1.8l4.8,2.9l2.6,1.8L181,124h13l3,0.1l1.6,0.1
		c0,0,1.9,0.3,3.5,0.6c1.3,0.3,5.6,1.6,6.7,1.8l0.2,0.5h17l16,2l18.5,3.8l8,6.9l10.5,7.4l7,6.5c0,0,7.5,7.5,9,7.5s14,9.5,14,9.5
		L283,196h4.5l5,3l0.5,2.8l-1,2.9l5.5,4.4l-0.5,4l25.5,23l1.3,4.7l33.9,31.6l4.7-6.3l8,6.3l2.3,7l0.6,1.8l5.8,1.3l-4-11.5v-14
		l26.5-5l8.8-6l10.6-8.5l7.6-4.5l8.3-6l3.3-5v-13l-2-6.5l-3.8-0.5l-1.4-3l1.1-3l3-1.5l3,0.5v-11l2-2.5V179l-6.5-2.2l-5.3-3.8
		l-6.4,1.5l-5.9-4l-5.9-2L412,155L412,155z"/>
	<path fill="#ffff00" data-title="Centru"
		d="M461.3,366.5l-3.5-4.5l-2.9-4.5l1.1-2.5h6l-3.5-5.5l-6.6-7.3l-4.9-8.6l-2.5-5.6l-5-8l-3.5-5.5l-5.5-8L426,297
		l-5-6.4l-8-8.1l-3-6l-3-5.7l-6.5-6.8l-4.2-8l-1.7-2.7L375,257v14l4,11.5l-6-1.3l-0.4-1.8l-2.3-7l-8-6.3l-4.7,6.3L334.8,251h0
		l-11.4-10.7l-6.7,6l-10.7,9.3l-17.3,19.7l-11.7-4l-12.7-8l-6-5l-10.2,4.7l-4.8,4.3l-6.2,2.3l-1.2,7.7v4.7l-4,2h-8l-5.3,4.8
		l-5.7-2.6l-4-5.5l-5-2.7l-3.3,4.3l-1,6l-0.3,9L197,304v7l1.2,7l-6.4-1.7l-3.9,0.3l-2.6,4l-1.3,3.2l-2.5,4.3l-1.8,3.5l0.2,2.7
		l-3.5,1.5l-2.2,2.5l-1.7,1.8l-1,1.8l-3,2.8l-1.6,1.2c-2.2,2.9-4.8,5.7-7.5,8.1l-0.6,1.1l0.2,2.5l-1,2.2l0.3,4.2l-0.2,3l-1.8,1.5
		l-2.2,3l-3,6l-0.3,2.5l0.3,2.5l-1.2,1.2v4.2l-1.9,1.7l-0.1,4V406l-8.2,10.8l-3,3.2l-1.4,3.8l-1.2,2.3l-1.4,2.2l5,5l2.2-2.3l2.5-3.8
		l2.5-1.7l1.7-4.2l2.5-3.3l2.8-3.3l3.3-4.5l2.8-4.3l3.5-2.7l4.2-3.7l4.2-2.8l3.5-2.8l4.2-3.3l4.2-3.5l4.7-2.8l6-2.5l26.2-13.7l5,6.5
		l0.3,3l1.1,3.5v3l2.7,2.8l1.5,1.7l5.6-0.8l4.6-1.7l2.7-3.2l4-2.5l3.5-0.3l2.8,2l3.2-2.8l3-2.5l3.3-1.3l3.7,1.7l3.3,2.3l3.5,3
		l3.3,3.3l2.7,4l0.8,2.2l0.8,3.2l4,1.3l3.3-1.7l4.5-1l4-0.2l3.8,4.5l3.7,2.3l3.2,2.7l4.5,5.5l6.5,6.7l4.5,4l7.9,6.6l0.9-3.4l4-6.3
		v-5l5.8-2.7l3.2-2.3h2v-12c0,0,1.5-6.3,2.2-7.7s1.9-13.3,1.9-13.3l-11.2-31l-1.3-15l4.4-9.7l4.4-1.3l4,6.7l1.7,2.7l6-5.7l18.3-3.7
		l6.6-4.7l5.1-4.7l4.6-2.7l1.4,0.6l2.3,3l4.7,4.5l3,3l3.5,3l5.5,8.5l3.5,4.4l2.5,5.9l2,5.2l2,3.8l3.5,8.2l4,4l3.5,4.5l7,8l3.5,6.5
		l5,3l4.5,0.5l2.5,2.5l2.5,3h3l0.5-4.5l3.5-3.5v-8.5L461.3,366.5z"/>
	<path fill="#00ffff" data-title="Ciocana"
		d="M654.5,341.7l-0.3-2.7l-3-3.8l-1.7-1.3l-3-3.2l-2,1.2L643,333l-0.3,1.2l-4-3.7l-0.8-1.3l-2-1.3l-1.5,1
		l-1.2,0.5l-1.7,0.3l-1.7-1.3l-1.5-3.5l-2.7,0.7l-3-1.2l-0.5-1.7l1.2-2.3l2.5-1.5l1.7-2.2l-0.5-1l-1.3-1.8l-5-1.7l-4.7-3.3l-3.5-0.7
		L612,307h-2l-2.7-1.5l-1.7,0.7l-2,1.1l-6-4.1l-4.7-3.2l-4.3,1.3l-2.7,3.2l-20.3,15.5l-5.3-5.8l-13.2-15.8l-34.2,23l-2.7,1l-2.2-0.2
		l-4.2-12l-1.2-7.5L504,290l1.8-5.8l1.8-7.7l2.2-6.3l0.3-5.8l1-4l1.2-3.5l2.7-1l2-1l-0.7-2.3l-1-2l-1-3.5l-2.5-2.7l-1.3-3.3
		l-1.3-2.2l0.7-2.5l0.8-4.8l1-2l-3.6-4.7L505,222v-3l3.2-0.8l2.3-2.5l13.7-12.2l7.6-18.8l2.6-7.7l8.7-7l5.8-1.5l2.7-2.8l2.8-1.3
		l2.2-2.3l0.3-2.3l1.8-2.2l3.5-1.8l1.7-3.3l1.5-3l2.5-1.2l1.8-1.5l1.8-2.3l-13.2-1.5l-4.7,1l-2.5,1.2l-6.5,1l-3.2,3l-2,2.8l-3.7,1.5
		l-3.3,1.8l-0.8,0.5l-3.5,3.2l-4.2,4.7l-2.3,1.3l-2.7-1.7l-2.3-1.7l0.5-15l-1-16.5l-0.2-32.8l-16.8-5.3L497,73.5l-0.2-7.8l16.5-3.2
		l-0.7-7.3l-1.7-7.8l-0.7-2L505,47h-7l-5-4l0.8-6l-1.3-8.1l1.3-3.6l-2.2-3.9l-2.7-4.2l-1.5-1.2l-1.2,13l-4.7-0.3l-13-5.8l-1.7,4.3
		l-0.5,7.3l-0.2,10.3l-0.7,8.3l-0.3,8L464,71.5l1,7.8l0.2,5.7l-2.3,4l-10.9,1.1l-5.1,2.9l-7.8,0.5l-8.5,2L426,98v7l-1,5.5l-1,6.5v7
		v3.5l-2,4.5v6.5l-2.5,4l-2.8,5L412,155v8v5.5l6,2l5.8,4l6.6-1.5l5.1,3.8l6.6,2.2v2.5l-2,2.5v3v8l-3-0.5l-3.3,1.5l-0.9,3l1.6,3
		l3.5,0.5l2,6.5v5v8l-3.3,5l-8.5,6l-7.4,4.5l-10.4,8.5l-8.5,6l-6.9,1.3l1.3,2.7l4.2,8l6.5,6.8l3,5.7l3,6l8,8.1l5,6.4l4.5,9.5l5.5,8
		l3.5,5.5l5,8l2.5,5.5l4.9,8.5l5.1,5.5l0,0l0,0l1.5,2.1l3.5,5.5h-4l4.5,3l4.5,5.3l4,4.4l3.5,3.4l4.5,3.5l5,3.5l4,4.5l5.5,6l5.5,5.5
		l5.5,3.5l4.5,5l4.5,4l6.5,9l4,6l1,4l4,4.5l5.5,6l2,4.5l4.2,4.7l0.1-0.3l3.5-3.8l2.7-2.5l2.7-4.7l3.3-3.2l2.8-4.3l5-5.5l7.8-6.3
		l8.5-8.7l5-4.3l0.8-2.3l-1.8-4.5l-1-5.2l-1-5.2l2.2-2.3l3.5-0.8l4.8-3.3l3.5-2.5l4.3-2.3l-0.2-4.8l-1.5-3.7L592,360l-1.2-3.2
		l1.8-1.5l2.2-1.8l-1.2-4l1.2-2.2l4.5-2.8l3-2.8l2.8,0.2l2.2,1l1.7,3.8l3,3.7l3.7,2.8l2.3,3l3.5,2.6l3.7-2.1c0,0,4.3-1.3,4.8-1.7
		s3.7-1.7,3.7-1.7l3.8-0.7l4.7-1.5l5.3-1l4.7-2.3l3.3-1.9L654.5,341.7z"/>
	<g>
		<path  fill="#f00ff0" data-title="Botanica"
			d="M704,657.7l-1.7-6.3l-1.5-6.3c0,0-0.8-6-1.3-6.5s-3.7-4.3-3.7-4.3l-2.5-5.2l-2.2-5l2.5-3.5l1.8-2.3l-0.2-2
			l-7-2.3l-10.8-8.2l-7.3-4.3l-6-3l-10.5-5.7l-5.2-1l-1-2.3l0.2-3l-7-5l-4-3.7l-3.2-4l-6.2-3.7l-2.2-4l-3.5-3.7l-4.7-4.2l-2.2-2.1
			h-1.3l-2.5-0.7l-0.8-4.1l-4.7-1.8l-0.3-1.9l-3.7-3.5l-6.3-8.3l-1.5-5l-1.7-3.5l-1.2-0.7l-1.5,0.2l-1.3,1.2l-1.3,2.3l-2.2,1.2
			l-2.7-2.2l-0.5-1.2l-2.7-5.7l-1.5-4.3l-2.8-3.8l-3.3-7.5l-3-3.2l-4.3-5.7l-4.7-5.3l-3-4.8l-6.7-8.3l-4.5-6.7l-3.8-6.3l-1.7-5.2
			l-1.3-5.8l0.5-6l1.8-4.5l-0.1,0.3l-4.2-4.7l-2-4.5l-5.5-6l-4-4.5l-1-4l-4-6l-6.5-9l-4.5-4l-4.5-5l-5.5-3.5l-5.5-5.5l-5.5-6l-4-4.5
			l-5-3.5L474,371l-3.5-3.5l-4-4.5l-4.5-5.5l-4.5-3.5h-2l-1,3l3,5l3.8,4.5l5.3,3v8.5l-4,3l-1,4h-3l-2.5-2.5l-2.5-2L449,380l-5-3
			l-3.5-6.5l-7-8L430,358l-4-4l-3.5-8.2l-2-3.8l-2-5.2l-2.5-5.9l-3.5-4.4L407,318l-3.5-3l-3-3l-4.7-4.5l-2.3-3l-1.4-0.6l-4.6,2.7
			l-5.1,4.7l-6.6,4.7l-18.3,3.7l-6,5.7l-1.7-2.7l-4-6.7l-4.3,1.3l-4.3,9.7l1.3,15l11.3,31c0,0-1,12-1.7,13.3s-1.7,7.7-1.7,7.7v11h-3
			l-2.7,2.8l-5.3,3.2v5l-4.5,6.3l-1.4,3.4l-0.5-0.4l0,0l0.6,0.5l8.5,3.2l1.7,2.3l3.2,4l2.5,4.7l6.7,10.3l2.7,4.8l5,5l3.5,4l5,5.5
			l3.3,8.7l3.3,4.2l4.2,5l4.7,5l5.2,4.7l4,4.5l3.2,4.7l2.8,3l0.8,4.8l2,5.3l1.5,4.8l1.2,5.2v3.5l2.8,4h4.2l2-1h3l2.5-1h1.5l1.2,1.5
			l1.7,1.8l2.2,0.5l1.7-3.1l1.7-2.2l1.7-2.7l1.7-2.2l1.8-3.3l5-6.5l4.3-4.2l3.2-4.5l3.2-3.7l1.3-4l0.6-4V494l5.8-3.3l4.9-1.7
			l3.8-0.5l4.7,1.8l3,3.5l3,2l12,11.5l13.2,11.8l31.3-19.5l7,6.2l-2.7,4.8l2.7,1.5l2.2-0.3l2,1l10.5,16.8l3,4.7l3,6.2l2.8,4.5
			l5.2,4.3l1.7,6l-0.7,2.8l-2.2,3.5l0.2,4l0.8,3.7l1.7,4.3v6.3l2,3.5v1.5l-2.3,3.8l-1.4,4l-1.2,3.5l-2.1,3.7l-1.8,2l-1.5,5l-2.7,2.2
			l-0.2,8.8l-8.5,2.3l-5.7-1.3l-4.6,0.2v3.8l-8.2,2h-2.8l-0.7,3.2l1.7,1.3l2.3,1.5h8.7l4.5,1h3.5l3.8,2h7.2l1.5,1.2l-1,7.3l0.3,2.5
			h-13.8l-3.8,1h-16.2l-2.5,4.3l-13.3,0.6l-6.7,1.5l0.3,4.6h4.2l1.8,2h31.2l4.3-4.7l19.3-1.1l26.2-1.3l26.3-0.9l13.8,0.3l16.5,24.2
			l4.2-3.7l-9.2-16l4.2-1.2l0.5-1.7l19.6-0.8l3.3-2V643l-4.7,0.3l-3.3-1.7l-3.9-4.8l-0.1-4.2l0.4-3.8l2.5-0.8l8.7,5.3l7.2,4l3.3,4
			l8.5,8.3l5.2,5.3l5.2,8.8l4.5,5.7l1.3-0.7L704,657.7z"/>
	</g>
</g>
</svg>
